<?xml version="1.0" standalone="no"?>
<!DOCTYPE svg PUBLIC "-//W3C//DTD SVG 20010904//EN"
 "http://www.w3.org/TR/2001/REC-SVG-20010904/DTD/svg10.dtd">
<svg version="1.0" xmlns="http://www.w3.org/2000/svg"
 width="512.000000pt" height="512.000000pt" viewBox="0 0 512.000000 512.000000"
 preserveAspectRatio="xMidYMid meet">

<g transform="translate(0.000000,512.000000) scale(0.100000,-0.100000)"
fill="#000000" stroke="none">
<path d="M3755 4459 c-89 -12 -247 -66 -322 -110 -32 -19 -91 -66 -132 -106
-58 -56 -72 -75 -66 -90 14 -33 18 -348 6 -465 -54 -525 -258 -1154 -529
-1633 -99 -176 -322 -493 -308 -440 9 35 45 344 58 495 16 192 16 766 0 950
-55 615 -183 1008 -400 1229 -104 105 -217 151 -370 151 -151 0 -277 -49 -417
-161 -175 -141 -322 -364 -429 -653 -35 -92 -36 -99 -20 -117 16 -18 19 -17
80 27 226 161 382 93 518 -225 132 -306 235 -881 281 -1561 17 -266 35 -668
35 -830 l1 -115 44 -34 c86 -64 219 -101 420 -116 l89 -7 129 133 c606 627
1075 1277 1416 1959 237 476 380 890 451 1307 24 138 20 167 -29 244 -81 128
-289 197 -506 168z"/>
</g>
</svg>
