<?xml version="1.0" standalone="no"?>
<!DOCTYPE svg PUBLIC "-//W3C//DTD SVG 20010904//EN"
 "http://www.w3.org/TR/2001/REC-SVG-20010904/DTD/svg10.dtd">
<svg version="1.0" xmlns="http://www.w3.org/2000/svg"
 width="512.000000pt" height="512.000000pt" viewBox="0 0 512.000000 512.000000"
 preserveAspectRatio="xMidYMid meet">

<g transform="translate(0.000000,512.000000) scale(0.100000,-0.100000)"
fill="#000000" stroke="none">
<path d="M1140 5109 c-589 -77 -1055 -549 -1130 -1141 -14 -113 -14 -2703 0
-2816 76 -603 551 -1073 1154 -1143 61 -7 546 -9 1461 -7 1353 4 1371 4 1455
25 47 12 114 31 150 43 384 129 698 446 824 832 65 199 61 97 61 1658 0 1561
4 1459 -61 1658 -126 386 -440 703 -824 832 -36 12 -103 31 -150 43 -84 21
-98 21 -1480 23 -767 1 -1424 -2 -1460 -7z m2204 -1687 c91 -52 118 -293 65
-568 -43 -225 -156 -492 -297 -704 -130 -196 -327 -373 -477 -429 -200 -75
-377 -36 -445 99 -25 51 -38 116 -55 280 -41 398 -128 730 -219 828 -29 33
-83 59 -138 67 -71 11 -83 30 -82 134 0 67 5 97 24 139 61 139 242 209 393
152 70 -26 156 -115 197 -202 76 -164 111 -395 113 -767 2 -281 1 -278 75
-288 92 -12 245 61 364 174 163 156 216 343 153 541 -21 65 -36 91 -92 157
-66 77 -68 80 -68 135 0 75 28 117 122 179 134 91 283 120 367 73z"/>
</g>
</svg>
